<svg xmlns="http://www.w3.org/2000/svg" width="32" height="32" viewBox="60 20 392 472">
  <defs>
    <linearGradient id="g" x1="0" y1="0" x2="0" y2="1">
      <stop offset="0%" stop-color="#a78bfa"/>
      <stop offset="100%" stop-color="#7c3aed"/>
    </linearGradient>
  </defs>
  <path fill="url(#g)" d="M256 48c-55 0-88 18-104 36-10 11-18 28-20 48-3 25 2 50 8 74 8 32 18 63 22 96 4 32 6 68 14 96 4 14 10 26 20 34 8 6 17 8 26 4 10-5 17-18 22-36 8-28 14-64 26-92 8-18 18-32 34-32s26 14 34 32c12 28 18 64 26 92 5 18 12 31 22 36 9 4 18 2 26-4 10-8 16-20 20-34 8-28 10-64 14-96 4-33 14-64 22-96 6-24 11-49 8-74-2-20-10-37-20-48C344 66 311 48 256 48z"/>
</svg>
